<svg width="227" height="175" viewBox="0 0 227 175" fill="none" xmlns="http://www.w3.org/2000/svg">
<path d="M12.5004 121.5C14.5 121.173 19.7096 121.948 20.0005 121.5C20.2914 121.052 19.999 79.8181 21 72C22.001 64.1819 23.501 41.5 29.5005 31.5C35.5 21.5 44.5005 21 44.5005 21C101.224 15.8127 177.501 20 181.501 21C185.501 22 191.501 25 193.001 30C200.744 50.2979 206.501 91 206.501 91.5C206.501 92.0001 209.501 94 209.501 95V109.5C209.501 110.5 211.001 110 211.001 111.5C211.001 113 211.501 134.5 211.001 135.5C210.501 136.5 208.501 138.5 206.501 138.5H182.001C172.368 159.696 154.646 162.348 144.001 162.5C133.355 162.653 120.657 161.592 108.5 150C96.5372 160.808 89.5005 162.5 72.0005 162.5C54.5005 162.5 44.082 153.071 33.5005 137.5C33.5005 137.5 30.0005 138 23.0005 138C16.0005 138 14.8395 138.367 13.0001 136.5C11.1607 134.633 10.5008 121.827 12.5004 121.5Z" fill="#0E0E2C" stroke="#FFEE8C" stroke-width="4"/>
<path d="M38 33.5C34.5 37 29.4485 59.9426 28 84.5001C28.1879 85.4624 28.834 85.7437 30.5 86.0001H196.5C197.901 86.2165 197.5 82.5001 197.5 82.5001C197.5 82.5001 188.862 40.3103 186.5 36.5C186.5 36.5 184.117 31.6972 176.5 29C168.883 26.3029 52.5 28.5 48.5 29C44.5 29.5 41.5 30 38 33.5Z" fill="#FFEE8C"/>
<path d="M69.782 87.6074H57.9999L39.1484 27.6074H50.8987L63.8909 71.3674L76.8513 27.6074H88.6016L69.782 87.6074Z" fill="#0E0E2C"/>
<path d="M94.2229 87.6074H82.4726L101.324 27.6074H113.106L131.926 87.6074H120.175L116.673 75.8074H97.7257L94.2229 87.6074ZM101.324 63.5274H113.106L107.215 43.8474L101.324 63.5274Z" fill="#0E0E2C"/>
<path d="M181.613 87.1779L168.614 87.4293L148.19 49.5371L148.924 87.81L137.764 88.0258L137 27H149.5L170.038 65.7577L169.302 27.4048L180.463 27.189L181.613 87.1779Z" fill="#0E0E2C"/>
<path d="M197.5 91.5H208.5V109.5H197.5C192.529 109.5 188.5 105.471 188.5 100.5C188.5 95.5294 192.529 91.5 197.5 91.5Z" fill="#FFEE8C" stroke="#FFEE8C"/>
<path d="M90.5744 99.2966C88.5081 97.0513 86.0343 95.3278 83.153 94.1261C80.3009 92.9243 77.2596 92.3235 74.0291 92.3235C70.7404 92.3235 67.7282 92.9402 64.9925 94.1735C62.2859 95.4068 59.943 97.1778 57.964 99.4863C55.9849 101.763 54.457 104.483 53.3802 107.645C52.3034 110.776 51.7649 114.255 51.7649 118.081C51.7649 121.939 52.3034 125.481 53.3802 128.707C54.4861 131.901 56.0286 134.668 58.0076 137.008C60.0158 139.348 62.3877 141.151 65.1234 142.416C67.8592 143.681 70.8714 144.313 74.1601 144.313C77.0122 144.313 79.6315 143.839 82.018 142.89C84.4045 141.91 86.5 140.518 88.3044 138.716C90.1379 136.882 91.6367 134.684 92.8009 132.122C93.965 129.561 94.7362 126.715 95.1146 123.584H74.422V113.907H105.286L105.592 118.65C105.592 124.058 104.821 129.007 103.278 133.498C101.765 137.957 99.5965 141.831 96.7735 145.12C93.9504 148.377 90.6035 150.891 86.7328 152.662C82.862 154.433 78.5838 155.318 73.8981 155.318C69.067 155.318 64.585 154.385 60.4523 152.52C56.3487 150.654 52.7545 148.061 49.6695 144.74C46.6136 141.388 44.2271 137.467 42.51 132.976C40.822 128.485 39.978 123.6 39.978 118.318C39.978 113.069 40.822 108.199 42.51 103.708C44.2271 99.1859 46.5991 95.2487 49.6258 91.8966C52.6817 88.5444 56.2614 85.9513 60.365 84.1171C64.4977 82.2513 68.9651 81.3184 73.7672 81.3184C78.3364 81.3184 82.7019 82.1722 86.8637 83.8799C91.0546 85.5876 94.7944 88.0384 98.0831 91.2325L90.5744 99.2966Z" fill="#FFEE8C"/>
<path d="M144.709 155.318C139.761 155.318 135.192 154.401 131.001 152.567C126.839 150.733 123.216 148.156 120.131 144.835C117.046 141.483 114.645 137.562 112.928 133.071C111.24 128.549 110.396 123.631 110.396 118.318C110.396 112.974 111.24 108.056 112.928 103.566C114.645 99.0752 117.046 95.1696 120.131 91.8491C123.216 88.497 126.839 85.9038 131.001 84.0696C135.192 82.2355 139.776 81.3184 144.752 81.3184C149.7 81.3184 154.255 82.2355 158.416 84.0696C162.578 85.9038 166.202 88.497 169.287 91.8491C172.372 95.1696 174.758 99.0752 176.446 103.566C178.134 108.056 178.978 112.974 178.978 118.318C178.978 123.631 178.134 128.549 176.446 133.071C174.758 137.562 172.372 141.483 169.287 144.835C166.202 148.156 162.578 150.733 158.416 152.567C154.255 154.401 149.685 155.318 144.709 155.318ZM144.709 144.313C147.939 144.313 150.922 143.665 153.658 142.368C156.394 141.072 158.766 139.253 160.774 136.913C162.811 134.541 164.383 131.774 165.489 128.612C166.624 125.45 167.191 122.018 167.191 118.318C167.191 114.618 166.624 111.187 165.489 108.025C164.383 104.862 162.811 102.111 160.774 99.7709C158.766 97.3991 156.394 95.5649 153.658 94.2684C150.922 92.9718 147.939 92.3235 144.709 92.3235C141.507 92.3235 138.524 92.9718 135.759 94.2684C133.024 95.5649 130.637 97.3991 128.6 99.7709C126.592 102.111 125.02 104.862 123.885 108.025C122.75 111.187 122.183 114.618 122.183 118.318C122.183 122.018 122.75 125.45 123.885 128.612C125.02 131.774 126.592 134.541 128.6 136.913C130.637 139.253 133.024 141.072 135.759 142.368C138.524 143.665 141.507 144.313 144.709 144.313Z" fill="#FFEE8C"/>
<rect x="206" y="110" width="3" height="2" fill="#0E0E2C"/>
</svg>
