<svg width="160" height="160" viewBox="0 0 160 160" fill="none" xmlns="http://www.w3.org/2000/svg">
<path fill-rule="evenodd" clip-rule="evenodd" d="M127.632 32.3629C122.632 27.3632 111.24 29.8354 97.4934 37.7603C93.3771 22.4358 87.0695 12.6314 79.9985 12.6314C72.9277 12.6314 66.6202 22.4352 62.504 37.7589C48.7586 29.8348 37.3668 27.3629 32.3672 32.3625C27.3671 37.3626 29.84 48.7561 37.7661 62.5034C22.4384 66.6196 12.6316 72.928 12.6316 79.9998C12.6316 87.0704 22.4349 93.3778 37.758 97.494C29.8314 111.242 27.3582 122.636 32.3584 127.636C37.3589 132.637 48.7538 130.163 62.5026 122.236C66.6188 137.562 72.9269 147.368 79.9985 147.368C87.0702 147.368 93.3785 137.562 97.4948 122.234C111.244 130.162 122.64 132.636 127.641 127.636C132.641 122.636 130.168 111.242 122.241 97.4942C137.565 93.378 147.368 87.0705 147.368 79.9998C147.368 72.9279 137.561 66.6195 122.233 62.5033C130.159 48.7562 132.632 37.363 127.632 32.3629Z" fill="#0E0E2C"/>
</svg>
